HIERARCHY
ROOT Hips
{
	OFFSET 0.00000 0.00000 0.00000
	CHANNELS 6 Xposition Yposition Zposition Zrotation Yrotation Xrotation 
	JOINT LHipJoint
	{
		OFFSET 0 0 0
		CHANNELS 3 Zrotation Yrotation Xrotation
		JOINT LeftHip
		{
			OFFSET 1.75344 -1.53157 0.77399
			CHANNELS 3 Zrotation Yrotation Xrotation
			JOINT LeftKnee
			{
				OFFSET 2.25415 -6.19323 0.00000
				CHANNELS 3 Zrotation Yrotation Xrotation
				JOINT LeftAnkle
				{
					OFFSET 2.30342 -6.32861 0.00000
					CHANNELS 3 Zrotation Yrotation Xrotation
					JOINT LeftToe
					{
						OFFSET 0.10958 -0.30108 1.49206
						CHANNELS 3 Zrotation Yrotation Xrotation
						End Site
						{
							OFFSET 0.00000 -0.00000 0.77783
						}
					}
				}
			}
		}
	}
	JOINT RHipJoint
	{
		OFFSET 0 0 0
		CHANNELS 3 Zrotation Yrotation Xrotation
		JOINT RightHip
		{
			OFFSET -1.81912 -1.53156 0.77399
			CHANNELS 3 Zrotation Yrotation Xrotation
			JOINT RightKnee
			{
				OFFSET -2.22882 -6.12365 0.00000
				CHANNELS 3 Zrotation Yrotation Xrotation
				JOINT RightAnkle
				{
					OFFSET -2.21943 -6.09785 0.00000
					CHANNELS 3 Zrotation Yrotation Xrotation
					JOINT RightToe
					{
						OFFSET -0.18931 -0.52012 1.59379
						CHANNELS 3 Zrotation Yrotation Xrotation
						End Site
						{
							OFFSET -0.00000 -0.00000 0.84686
						}
					}
				}
			}
		}
	}
	JOINT lowerback
	{
		OFFSET 0 0 0
		CHANNELS 3 Zrotation Yrotation Xrotation
		JOINT Chest
		{
			OFFSET -0.00200 1.66634 -0.14248
			CHANNELS 3 Zrotation Yrotation Xrotation
			JOINT Chest2
			{
				OFFSET -0.00875 1.64542 0.09514
				CHANNELS 3 Zrotation Yrotation Xrotation
				JOINT lowerneck
				{
					OFFSET 0 0 0
					CHANNELS 3 Zrotation Yrotation Xrotation
					JOINT Neck
					{
						OFFSET 0.02257 1.59605 0.00839
						CHANNELS 3 Zrotation Yrotation Xrotation
						JOINT Head
						{
							OFFSET -0.10214 1.57530 -0.23335
							CHANNELS 3 Zrotation Yrotation Xrotation
							End Site
							{
								OFFSET -0.03588 1.60717 -0.08062
							}
						}
					}
				}
				JOINT LeftCollar
				{
					OFFSET 0 0 0
					CHANNELS 3 Zrotation Yrotation Xrotation
					JOINT LeftShoulder
					{
						OFFSET 2.54983 1.10186 0.40078
CHANNELS 3 Zrotation Xrotation Yrotation
						JOINT LeftElbow
						{
OFFSET 0 -4.288400 0.000000
CHANNELS 3 Zrotation Xrotation Yrotation
							JOINT LeftWrist
							{
OFFSET 0 -3.065520 -0.000000
CHANNELS 3 Zrotation Xrotation Yrotation
								JOINT lhand
								{
									OFFSET 0 0 0
CHANNELS 3 Zrotation Xrotation Yrotation
									JOINT LFingers
									{
OFFSET 0 -0.753040 0.000000
CHANNELS 3 Zrotation Xrotation Yrotation
										End Site
										{
OFFSET 0 -0.607120 0.000000
										}
									}
								}
								JOINT LThumb
								{
OFFSET 0 0.000000 0.000000
CHANNELS 3 Zrotation Xrotation Yrotation
									End Site
									{
OFFSET 0 -0.616390 0.616390
									}
								}
							}
						}
					}
				}
				JOINT RightCollar
				{
					OFFSET 0 0 0
					CHANNELS 3 Zrotation Yrotation Xrotation
					JOINT RightShoulder
					{
						OFFSET -2.60909 1.35448 0.21802
CHANNELS 3 Zrotation Xrotation Yrotation
						JOINT RightElbow
						{
OFFSET 0 -4.521720 -0.000000
CHANNELS 3 Zrotation Xrotation Yrotation
							JOINT RightWrist
							{
OFFSET 0 -2.891400 0.000000
CHANNELS 3 Zrotation Xrotation Yrotation
								JOINT rhand
								{
									OFFSET 0 0 0
CHANNELS 3 Zrotation Xrotation Yrotation
									JOINT RFingers
									{
OFFSET 0 -0.680540 0.000000
CHANNELS 3 Zrotation Xrotation Yrotation
										End Site
										{
OFFSET 0 -0.548670 0.000000
										}
									}
								}
								JOINT RThumb
								{
OFFSET 0 0.000000 0.000000
CHANNELS 3 Zrotation Xrotation Yrotation
									End Site
									{
OFFSET 0 -0.557050 0.557050
									}
								}
							}
						}
					}
				}
			}
		}
	}
}
MOTION
Frames: 10
Frame Time: 0.008333333333333333
8.772200 15.552700 23.618600 -178.997000 -3.424100 177.841000 0.000000 0.000000 0.000000 -24.222400 -21.401300 4.761700 1.177600 6.887400 19.382300 0.968000 7.169100 -22.502800 4.471000 -12.762100 -38.484300 0.000000 0.000000 0.000000 26.478900 8.636800 3.999100 -0.783900 -5.652400 15.779100 0.917600 -21.647200 -22.897200 -0.161300 -2.587500 7.132400 1.737700 3.204400 8.575300 0.079200 4.485100 -3.408600 -1.583200 2.084300 -8.289200 8.466600 15.055900 -3.815300 1.764500 19.061500 14.605900 0.504200 9.730100 5.699100 0.000000 0.000000 0.000000 4.951400 15.245100 -29.300800 19.201800 -29.668600 5.130300 2.916200 15.911800 33.261500 0.000000 0.000000 0.000000 -7.125000 0.000000 0.000000 -16.222100 -2.165700 -17.530900 0.000000 0.000000 0.000000 -8.211400 19.255700 25.802900 -16.483800 -26.172200 -3.856900 -4.650200 30.910700 52.862700 0.000000 0.000000 0.000000 7.125000 0.000000 -0.000000 69.823500 72.953500 -52.344800
8.772875 15.550393 23.620963 -179.036945 -3.336277 177.861254 0.000000 0.000000 0.000000 -24.257394 -21.374182 4.663244 1.194197 6.933927 19.519969 0.965525 7.285503 -22.566262 4.536543 -12.841765 -38.779442 0.000000 0.000000 0.000000 26.459378 8.797142 4.190160 -0.760214 -5.567728 15.535324 0.965759 -21.829878 -22.754805 -0.139302 -2.399590 6.611541 1.658429 3.192698 8.564104 0.055627 4.457757 -3.447307 -1.560696 2.073217 -8.329426 8.345246 14.791476 -3.997359 1.896712 18.662839 14.881970 0.550334 9.534651 5.780059 0.000000 0.000000 0.000000 5.057451 15.166842 -29.077952 19.137382 -29.588935 5.098513 2.872148 16.305342 32.753975 0.000000 0.000000 0.000000 -7.125000 0.000000 0.000000 -16.232846 -1.675165 -17.405608 0.000000 0.000000 0.000000 -8.107374 19.248330 25.545452 -16.404585 -26.066037 -3.822075 -5.038172 31.640342 52.859437 0.000000 0.000000 0.000000 7.125000 0.000000 0.000000 69.615111 73.093195 -52.315263
8.773450 15.547999 23.623489 -179.066748 -3.250734 177.875247 0.000000 0.000000 0.000000 -24.282346 -21.348805 4.575932 1.209178 6.975885 19.644091 0.964764 7.383750 -22.631451 4.589316 -12.905879 -39.017039 0.000000 0.000000 0.000000 26.447556 8.955707 4.383500 -0.736654 -5.482956 15.291397 0.998004 -21.958653 -22.672748 -0.126006 -2.286518 6.298115 1.597839 3.182085 8.558831 0.032479 4.434259 -3.484650 -1.549022 2.062997 -8.370153 8.190437 14.516835 -4.207126 2.060852 18.245634 15.176583 0.611192 9.330526 5.865375 0.000000 0.000000 0.000000 5.166131 15.087757 -28.873160 19.089479 -29.529692 5.074877 2.713405 16.655373 32.257455 0.000000 0.000000 0.000000 -7.125000 0.000000 0.000000 -16.307698 -1.185056 -17.353350 0.000000 0.000000 0.000000 -7.999718 19.238894 25.295855 -16.322992 -25.956568 -3.786260 -5.485067 32.403890 52.839696 0.000000 0.000000 0.000000 7.125000 0.000000 0.000000 69.323759 73.249492 -52.228794
8.773675 15.545298 23.626583 -179.061122 -3.173151 177.867371 0.000000 0.000000 0.000000 -24.272219 -21.329508 4.527548 1.218518 7.001877 19.720886 0.969997 7.418576 -22.702677 4.597473 -12.915668 -39.053608 0.000000 0.000000 0.000000 26.462633 9.108060 4.584799 -0.713531 -5.397834 15.046945 0.974656 -21.899129 -22.801472 -0.143110 -2.434876 6.709323 1.602509 3.175277 8.574246 0.010819 4.424188 -3.517224 -1.575183 2.055796 -8.412630 7.918755 14.206502 -4.513689 2.336528 17.763651 15.535975 0.723487 9.096088 5.965912 0.000000 0.000000 0.000000 5.283997 15.005786 -28.731440 19.099268 -29.541788 5.079715 2.154008 16.853410 31.799383 0.000000 0.000000 0.000000 -7.125000 0.000000 0.000000 -16.606497 -0.696434 -17.556225 0.000000 0.000000 0.000000 -7.879377 19.222241 25.073683 -16.233087 -25.835551 -3.746991 -6.137801 33.285884 52.762394 0.000000 0.000000 0.000000 7.125000 0.000000 0.000000 68.742589 73.463788 -51.943441
8.774351 15.543700 23.629151 -179.044728 -3.092112 177.865254 0.000000 0.000000 0.000000 -24.243737 -21.310712 4.476134 1.227031 7.025465 19.790720 0.977132 7.431840 -22.774203 4.581065 -12.895783 -38.979868 0.000000 0.000000 0.000000 26.499823 9.317959 4.799972 -0.690433 -5.311560 14.799464 0.953612 -21.866801 -22.959945 -0.168126 -2.633619 7.260914 1.634399 3.171550 8.582725 -0.017978 4.420754 -3.549248 -1.624508 2.050272 -8.447619 7.605805 13.884701 -4.827239 2.642530 17.265791 15.877887 0.848555 8.854214 6.057510 0.000000 0.000000 0.000000 5.417313 14.909666 -28.619945 19.119850 -29.567256 5.089862 1.597665 16.907757 31.621828 0.000000 0.000000 0.000000 -7.125000 0.000000 0.000000 -16.908076 -0.478113 -17.842214 0.000000 0.000000 0.000000 -7.731890 19.196297 24.856368 -16.164243 -25.742807 -3.716986 -6.643339 34.007111 52.754358 0.000000 0.000000 0.000000 7.125000 0.000000 0.000000 68.462521 73.646256 -51.895835
8.775589 15.543475 23.631064 -179.014910 -3.006765 177.870317 0.000000 0.000000 0.000000 -24.192371 -21.292539 4.420943 1.234513 7.046057 19.851875 0.986640 7.418225 -22.846104 4.534031 -12.838904 -38.768610 0.000000 0.000000 0.000000 26.564579 9.599599 5.032441 -0.667366 -5.223850 14.548205 0.935439 -21.868376 -23.155506 -0.203007 -2.895174 7.987518 1.700224 3.171663 8.582556 -0.055672 4.425592 -3.580585 -1.702710 2.046841 -8.473274 7.241406 13.548601 -5.149499 2.986338 16.748139 16.198009 0.989543 8.603067 6.137962 0.000000 0.000000 0.000000 5.569891 14.795907 -28.546132 19.153888 -29.609395 5.106628 1.045131 16.782972 31.793985 0.000000 0.000000 0.000000 -7.125000 0.000000 0.000000 -17.213120 -0.596766 -18.231818 0.000000 0.000000 0.000000 -7.550563 19.158771 24.645110 -16.121654 -25.685309 -3.698533 -6.965374 34.527914 52.832673 0.000000 0.000000 0.000000 7.125000 0.000000 0.000000 68.557826 73.789045 -52.144618
8.776864 15.544264 23.632489 -178.981336 -2.889189 177.884020 0.000000 0.000000 0.000000 -24.135258 -21.237593 4.365789 1.240118 7.061389 19.897442 0.990288 7.470495 -22.916052 4.519903 -12.821841 -38.705236 0.000000 0.000000 0.000000 26.638237 9.884056 5.262768 -0.645689 -5.139821 14.307839 0.928198 -21.892564 -23.280675 -0.236837 -3.126115 8.630582 1.776603 3.179213 8.581073 -0.095170 4.441549 -3.607978 -1.790115 2.048367 -8.492543 6.886886 13.203486 -5.453729 3.264110 16.232890 16.472305 1.107769 8.349742 6.211428 0.000000 0.000000 0.000000 5.727691 14.702094 -28.475022 19.164712 -29.622799 5.111975 0.885615 16.619722 31.909948 0.000000 0.000000 0.000000 -7.125000 0.000000 0.000000 -17.301841 -0.694234 -18.364343 0.000000 0.000000 0.000000 -7.367170 19.103028 24.460034 -16.083497 -25.633746 -3.682033 -7.054295 34.916722 52.721446 0.000000 0.000000 0.000000 7.125000 0.000000 0.000000 68.146900 73.786204 -51.768285
8.778158 15.545558 23.633670 -178.945891 -2.755570 177.902023 0.000000 0.000000 0.000000 -24.075285 -21.164342 4.310653 1.244787 7.074104 19.935249 0.991020 7.555560 -22.985027 4.522153 -12.824597 -38.715476 0.000000 0.000000 0.000000 26.716326 10.169915 5.492029 -0.624704 -5.057625 14.072895 0.926398 -21.928009 -23.370805 -0.270143 -3.341818 9.232062 1.858237 3.190465 8.578935 -0.135565 4.463040 -3.633408 -1.882101 2.052361 -8.508633 6.537284 12.853884 -5.748983 3.509012 15.718839 16.723789 1.214664 8.095332 6.281416 0.000000 0.000000 0.000000 5.888089 14.618210 -28.405259 19.163980 -29.621899 5.111637 0.921734 16.437326 31.997939 0.000000 0.000000 0.000000 -7.125000 0.000000 0.000000 -17.282882 -0.781157 -18.368900 0.000000 0.000000 0.000000 -7.182748 19.038216 24.287989 -16.047547 -25.585137 -3.666505 -7.027177 35.239826 52.515871 0.000000 0.000000 0.000000 7.125000 0.000000 0.000000 67.483983 73.710871 -51.080782
8.777899 15.547653 23.635202 -178.926474 -2.659214 177.946571 0.000000 0.000000 0.000000 -24.036647 -21.131809 4.237739 1.249307 7.086518 19.972004 0.994956 7.621945 -23.067625 4.506724 -12.805818 -38.645882 0.000000 0.000000 0.000000 26.757855 10.363120 5.642859 -0.606724 -4.985294 13.866599 0.938020 -21.980882 -23.356710 -0.290378 -3.463814 9.573008 1.913377 3.173770 8.556313 -0.170000 4.443514 -3.674113 -1.946190 2.037374 -8.533388 6.179017 12.468672 -6.080298 3.712044 15.161115 17.023303 1.312193 7.816181 6.380052 0.000000 0.000000 0.000000 6.013029 14.612706 -28.306548 19.161796 -29.619196 5.110548 1.373997 16.195180 31.908635 0.000000 0.000000 0.000000 -7.125000 0.000000 0.000000 -17.034239 -0.733555 -18.065393 0.000000 0.000000 0.000000 -7.040797 18.971701 24.240753 -16.023216 -25.552154 -3.655985 -6.941913 35.360191 52.265470 0.000000 0.000000 0.000000 7.125000 0.000000 0.000000 66.720399 73.594820 -50.262362
8.777513 15.549822 23.636809 -178.904593 -2.571431 177.998135 0.000000 0.000000 0.000000 -23.994385 -21.114410 4.159021 1.253953 7.099264 20.009746 0.998737 7.684224 -23.145902 4.488207 -12.783241 -38.562287 0.000000 0.000000 0.000000 26.799607 10.543863 5.771900 -0.589831 -4.916960 13.671779 0.954272 -22.049055 -23.325701 -0.305796 -3.555336 9.828907 1.965433 3.150945 8.522175 -0.200731 4.415248 -3.717590 -2.002690 2.018378 -8.555336 5.803600 12.080445 -6.415147 3.927592 14.598917 17.331012 1.416269 7.534715 6.480933 0.000000 0.000000 0.000000 6.130226 14.615423 -28.199109 19.156782 -29.612997 5.108060 1.880947 15.946712 31.813775 0.000000 0.000000 0.000000 -7.125000 0.000000 0.000000 -16.755499 -0.685564 -17.726957 0.000000 0.000000 0.000000 -6.909959 18.911675 24.233460 -16.014535 -25.540327 -3.652237 -6.823207 35.388498 52.064239 0.000000 0.000000 0.000000 7.125000 0.000000 0.000000 66.134589 73.482756 -49.609053
